<svg id="Layer_1" height="512" viewBox="0 0 512 512" width="512" xmlns="http://www.w3.org/2000/svg" data-name="Layer 1"><path d="m73.828 384.185a28.984 28.984 0 0 0 28.291 23.076h307.762a28.984 28.984 0 0 0 28.291-23.076l5.064-24.684h-374.472z"/><path d="m477.12 116.679a28.878 28.878 0 0 0 -6.242 57.073 63.631 63.631 0 0 1 -125.924-8.966 99.741 99.741 0 0 0 11.246-38.486 28.886 28.886 0 1 0 -10.027-.13 90.517 90.517 0 0 1 -180.287 0 28.874 28.874 0 1 0 -10.028.13 99.755 99.755 0 0 0 11.191 38.375 63.631 63.631 0 0 1 -125.931 9.078 28.876 28.876 0 1 0 -10.382.386l35.977 175.361h378.574l35.973-175.362a28.879 28.879 0 0 0 -4.14-57.459z"/><path d="m405.48 433.081h-298.96a5 5 0 1 0 0 10h298.96a5 5 0 0 0 0-10z"/></svg>