<?xml version="1.0" standalone="no"?>
<!DOCTYPE svg PUBLIC "-//W3C//DTD SVG 20010904//EN"
 "http://www.w3.org/TR/2001/REC-SVG-20010904/DTD/svg10.dtd">
<svg version="1.0" xmlns="http://www.w3.org/2000/svg"
 width="700.000000pt" height="700.000000pt" viewBox="0 0 700.000000 700.000000"
 preserveAspectRatio="xMidYMid meet">
<metadata>
Created by potrace 1.11, written by Peter Selinger 2001-2013
</metadata>
<g transform="translate(0.000000,700.000000) scale(0.100000,-0.100000)"
fill="#000000" stroke="none">
<path d="M2099 6044 c-98 -23 -181 -84 -239 -174 -68 -108 -77 -257 -22 -370
52 -107 138 -183 244 -215 45 -13 50 -22 61 -106 14 -110 63 -271 114 -374 25
-52 28 -67 22 -110 -24 -171 -82 -312 -181 -436 -232 -294 -618 -407 -972
-283 -250 87 -462 303 -536 547 -30 100 -31 97 25 118 106 41 197 133 231 234
28 83 30 180 4 254 -47 141 -147 233 -287 264 -135 30 -266 -7 -363 -105 -209
-210 -122 -563 160 -654 67 -21 60 -16 66 -50 3 -16 7 -37 10 -46 3 -10 7 -28
10 -40 8 -47 37 -190 103 -508 16 -80 32 -156 35 -170 2 -14 12 -61 21 -105 9
-44 19 -91 21 -105 3 -14 7 -33 10 -42 3 -10 7 -30 10 -45 6 -35 39 -196 69
-338 13 -60 26 -130 30 -155 4 -24 8 -47 10 -51 2 -3 7 -21 10 -40 3 -19 15
-74 25 -124 11 -49 21 -101 24 -115 2 -14 12 -61 21 -105 9 -44 19 -91 22
-105 2 -14 15 -77 29 -140 13 -63 24 -118 24 -122 0 -4 1166 -7 2590 -7 1425
0 2590 3 2590 7 0 4 7 41 16 82 9 41 18 84 20 95 2 11 8 43 14 70 6 28 12 59
14 70 2 11 20 98 40 192 20 95 38 187 41 205 4 18 15 76 27 128 11 52 22 106
25 120 2 14 16 79 30 145 14 66 27 129 29 140 2 11 6 31 8 45 3 14 19 93 37
175 17 83 33 159 35 170 2 11 6 31 8 45 3 14 19 93 37 175 17 83 33 161 36
175 11 63 73 353 75 355 2 1 27 10 57 19 173 55 284 214 276 393 -7 147 -88
270 -221 337 -81 41 -165 50 -258 29 -269 -61 -392 -373 -238 -603 42 -62 117
-123 182 -147 25 -9 48 -19 52 -22 8 -7 -31 -133 -62 -199 -37 -79 -105 -174
-172 -239 -177 -175 -377 -256 -623 -254 -107 0 -105 0 -211 26 -334 84 -600
385 -640 725 -3 30 -8 57 -9 58 -2 2 11 34 30 70 39 79 88 229 105 327 7 39
16 86 19 105 6 32 11 36 52 46 144 36 265 188 277 344 12 178 -84 334 -248
401 -83 33 -214 31 -294 -5 -79 -35 -118 -66 -164 -129 -69 -94 -93 -194 -73
-302 27 -144 140 -274 265 -306 l48 -12 -7 -56 c-27 -248 -164 -524 -352 -709
-167 -165 -355 -269 -592 -328 -89 -22 -130 -27 -251 -28 -246 -2 -365 23
-566 120 -379 181 -640 542 -690 954 l-6 45 44 12 c59 16 145 75 190 131 109
135 112 342 8 479 -95 126 -255 184 -411 147z"/>
<path d="M945 2065 c3 -11 16 -78 30 -150 38 -191 45 -214 78 -278 49 -93 139
-163 251 -192 75 -20 4303 -21 4389 -1 138 32 262 153 293 286 4 19 9 40 10
45 9 38 33 156 38 185 3 19 10 53 16 75 5 22 10 42 10 45 0 3 -1152 6 -2560 6
l-2559 0 4 -21z"/>
<path d="M1410 1058 c-24 -26 -25 -65 -4 -93 15 -20 28 -20 2072 -22 1332 -1
2068 2 2090 9 22 6 34 18 38 35 10 37 -7 76 -36 84 -14 4 -951 7 -2082 8
l-2057 1 -21 -22z"/>
</g>
</svg>
